<?xml version="1.0" encoding="UTF-8"?>
<svg width="987px" height="470px" viewBox="0 0 987 470" version="1.1" xmlns="http://www.w3.org/2000/svg" xmlns:xlink="http://www.w3.org/1999/xlink">
    <!-- Generator: Sketch 59 (86127) - https://sketch.com -->
    <title>Group 5</title>
    <desc>Created with Sketch.</desc>
    <g id="Page-1" stroke="none" stroke-width="1" fill="none" fill-rule="evenodd">
        <g id="cel-ligo-rotate" transform="translate(-320.000000, -2286.000000)" fill="#FFFFFF">
            <g id="Group-5" transform="translate(320.000000, 2286.000000)">
                <g id="airplane-travelling-around-earth" fill-rule="nonzero">
                    <path d="M85.8728564,341.517755 C72.0817599,319.234713 62.0155898,285.156071 62.0155898,248.716092 C62.0155898,139.451585 150.914949,50.5522259 260.157284,50.5522259 C282.650961,50.5522259 304.224493,54.5099602 324.379006,61.4387667 L300.32219,32.2269184 C287.273861,29.7990646 273.881864,28.3689589 260.157284,28.3689589 C138.675905,28.3689589 39.843409,127.212541 39.843409,248.705006 C39.843409,289.269011 51.0736186,327.194526 66.8269531,352.770137 L85.8728564,341.517755 Z" id="Path"></path>
                    <path d="M452.135112,199.859692 C456.115018,215.491079 458.310064,231.843063 458.310064,248.716092 C458.310064,357.958427 369.410705,446.857786 260.157284,446.857786 C213.761995,446.857786 171.169236,430.749697 137.423177,403.899186 L117.800797,416.39321 C156.191928,449.152607 205.835441,469.029967 260.157284,469.029967 C381.649749,469.029967 480.482245,370.186385 480.482245,248.716092 C480.482245,240.667591 479.916854,232.78538 479.074311,224.991859 L452.135112,199.859692 Z" id="Path"></path>
                    <path d="M511.700676,188.418846 C508.951325,175.304001 454.751429,98.8543218 454.751429,98.8543218 C454.751429,98.8543218 500.791963,54.3769271 503.840637,49.099948 C506.86714,43.822969 518.529707,31.9941105 503.66326,19.7661528 C488.785727,7.56036723 478.131994,15.4536636 472.866101,20.165252 C467.578036,24.8990126 428.033951,60.3190715 428.033951,60.3190715 C428.033951,60.3190715 347.75957,1.87320284 334.500606,0.842196432 C321.252728,-0.199896068 312.406028,11.6511346 312.406028,11.6511346 L394.06617,93.9875281 L354.045384,141.203187 L318.292742,130.771176 L298.526243,142.943703 C298.526243,142.943703 337.759917,160.049541 345.52018,169.905075 C353.29153,179.76061 363.535077,212.475663 363.535077,212.475663 L382.370345,202.553612 L373.579075,159.48415 L419.009874,123.321323 L496.889659,208.728564 C496.911831,208.728564 514.450026,201.533691 511.700676,188.418846 Z" id="Path"></path>
                    <path d="M328.33674,182.909059 C320.953404,175.980253 309.16889,171.623419 309.16889,171.623419 C211.611294,266.431665 89.863849,370.840464 63.3791789,374.19955 C53.3240949,374.920146 46.9828512,372.58098 44.4773948,367.170968 C41.6504417,360.996016 38.247012,357.005023 45.4418846,349.776892 L24.8661008,303.913736 C5.22154859,323.669149 -6.8290317,361.69444 4.21271436,385.695825 C13.8354408,406.626364 34.5331717,418.665858 60.3305041,418.665858 C62.4146891,418.665858 64.5543045,418.57717 66.69392,418.43305 C119.108955,414.530747 289.202841,252.873376 340.099082,203.440499 C340.087996,203.429413 335.720076,189.837866 328.33674,182.909059 Z" id="Path"></path>
                </g>
                <text id="El-mundo-es-tuyo,-vi" font-family="LithosPro-Regular, Lithos Pro" font-size="90" font-weight="normal">
                    <tspan x="512" y="165">El mundo </tspan>
                    <tspan x="512" y="255">es tuyo, </tspan>
                    <tspan x="512" y="345" font-family="LithosPro-Black, Lithos Pro" font-weight="700">viaja</tspan>
                </text>
            </g>
        </g>
    </g>
</svg>